<svg xmlns="http://www.w3.org/2000/svg" viewBox="0 0 150 100" width="150" height="100">
  <!-- Bonhomme 1 -->
  <!-- Tête -->
  <circle cx="25" cy="30" r="15" stroke="black" stroke-width="2" fill="white" />
  <!-- Corps -->
  <line x1="25" y1="45" x2="25" y2="75" stroke="black" stroke-width="2" />
  <!-- Bras gauche -->
  <line x1="25" y1="55" x2="10" y2="45" stroke="black" stroke-width="2" />
  <!-- Bras droit -->
  <line x1="25" y1="55" x2="40" y2="45" stroke="black" stroke-width="2" />
  <!-- Jambe gauche -->
  <line x1="25" y1="75" x2="10" y2="90" stroke="black" stroke-width="2" />
  <!-- Jambe droite -->
  <line x1="25" y1="75" x2="40" y2="90" stroke="black" stroke-width="2" />
  
<circle cx="75" cy="40" r="15" stroke="black" stroke-width="2" fill="white" />
  <!-- Corps -->
  <line x1="75" y1="55" x2="75" y2="85" stroke="black" stroke-width="2" />
  <!-- Bras gauche -->
  <line x1="75" y1="65" x2="60" y2="55" stroke="black" stroke-width="2" />
  <!-- Bras droit -->
  <line x1="75" y1="65" x2="90" y2="55" stroke="black" stroke-width="2" />
  <!-- Jambe gauche -->
  <line x1="75" y1="85" x2="60" y2="100" stroke="black" stroke-width="2" />
  <!-- Jambe droite -->
  <line x1="75" y1="85" x2="90" y2="100" stroke="black" stroke-width="2" />

  <!-- Bonhomme 3 -->
  <!-- Tête -->
  <circle cx="125" cy="30" r="15" stroke="black" stroke-width="2" fill="white" />
  <!-- Corps -->
  <line x1="125" y1="45" x2="125" y2="75" stroke="black" stroke-width="2" />
  <!-- Bras gauche -->
  <line x1="125" y1="55" x2="110" y2="45" stroke="black" stroke-width="2" />
  <!-- Bras droit -->
  <line x1="125" y1="55" x2="140" y2="45" stroke="black" stroke-width="2" />
  <!-- Jambe gauche -->
  <line x1="125" y1="75" x2="110" y2="90" stroke="black" stroke-width="2" />
  <!-- Jambe droite -->
  <line x1="125" y1="75" x2="140" y2="90" stroke="black" stroke-width="2" />
</svg>
