<?xml version="1.0" encoding="UTF-8" standalone="no"?>
<!DOCTYPE svg PUBLIC "-//W3C//DTD SVG 1.1//EN" "http://www.w3.org/Graphics/SVG/1.1/DTD/svg11.dtd">
<svg width="100%" height="100%" viewBox="0 0 136 36" version="1.1" xmlns="http://www.w3.org/2000/svg" xmlns:xlink="http://www.w3.org/1999/xlink" xml:space="preserve" xmlns:serif="http://www.serif.com/" style="fill-rule:evenodd;clip-rule:evenodd;stroke-linejoin:round;stroke-miterlimit:2;">
    <g transform="matrix(0.742101,0.670288,-0.670288,0.742101,11.1645,-21.4033)">
        <path d="M32,11C32,9.896 31.104,9 30,9C28.896,9 28,9.896 28,11L28,41C28,42.104 28.896,43 30,43C31.104,43 32,42.104 32,41L32,11Z" style="fill:rgb(232,206,176);"/>
    </g>
    <g transform="matrix(0.742101,0.670288,-0.670288,0.742101,28.1645,-21.4033)">
        <path d="M32,11C32,9.896 31.104,9 30,9C28.896,9 28,9.896 28,11L28,41C28,42.104 28.896,43 30,43C31.104,43 32,42.104 32,41L32,11Z" style="fill:rgb(232,206,176);"/>
    </g>
    <g transform="matrix(0.742101,0.670288,-0.670288,0.742101,45.1645,-21.4033)">
        <path d="M32,11C32,9.896 31.104,9 30,9C28.896,9 28,9.896 28,11L28,41C28,42.104 28.896,43 30,43C31.104,43 32,42.104 32,41L32,11Z" style="fill:rgb(232,206,176);"/>
    </g>
    <g transform="matrix(0.742101,0.670288,-0.670288,0.742101,63.1645,-21.4033)">
        <path d="M32,11C32,9.896 31.104,9 30,9C28.896,9 28,9.896 28,11L28,41C28,42.104 28.896,43 30,43C31.104,43 32,42.104 32,41L32,11Z" style="fill:rgb(232,206,176);"/>
    </g>
    <g transform="matrix(0.742101,0.670288,-0.670288,0.742101,81.1645,-21.4033)">
        <path d="M32,11C32,9.896 31.104,9 30,9C28.896,9 28,9.896 28,11L28,41C28,42.104 28.896,43 30,43C31.104,43 32,42.104 32,41L32,11Z" style="fill:rgb(232,206,176);"/>
    </g>
    <g transform="matrix(0.742101,0.670288,-0.670288,0.742101,97.1645,-21.4033)">
        <path d="M32,11C32,9.896 31.104,9 30,9C28.896,9 28,9.896 28,11L28,41C28,42.104 28.896,43 30,43C31.104,43 32,42.104 32,41L32,11Z" style="fill:rgb(232,206,176);"/>
    </g>
    <g transform="matrix(0.742101,0.670288,-0.670288,0.742101,115.164,-21.4033)">
        <path d="M32,11C32,9.896 31.104,9 30,9C28.896,9 28,9.896 28,11L28,41C28,42.104 28.896,43 30,43C31.104,43 32,42.104 32,41L32,11Z" style="fill:rgb(232,206,176);"/>
    </g>
</svg>
